<?xml version="1.0" standalone="no"?>
<!DOCTYPE svg PUBLIC "-//W3C//DTD SVG 20010904//EN"
 "http://www.w3.org/TR/2001/REC-SVG-20010904/DTD/svg10.dtd">
<svg version="1.0" xmlns="http://www.w3.org/2000/svg"
 width="589.000000pt" height="76.000000pt" viewBox="0 0 589.000000 76.000000"
 preserveAspectRatio="xMidYMid meet">

<g transform="translate(0.000000,76.000000) scale(0.100000,-0.100000)"
fill="#000056" stroke="none">
<path d="M192 745 c-24 -7 -53 -22 -64 -32 -33 -29 -58 -93 -58 -151 0 -71 30
-102 126 -131 107 -32 137 -78 98 -152 -25 -50 -110 -74 -168 -48 -26 12 -46
54 -46 95 0 21 -5 24 -35 24 l-35 0 0 -50 c0 -28 7 -65 16 -81 29 -57 134 -84
226 -59 79 22 138 102 138 186 0 40 -5 51 -38 84 -26 27 -56 43 -97 56 -76 21
-92 32 -104 66 -26 74 33 138 129 138 58 0 90 -31 90 -86 l0 -44 40 0 40 0 0
50 c0 28 -7 65 -16 81 -31 60 -143 85 -242 54z"/>
<path d="M2505 748 c-22 -68 -88 -418 -89 -470 -1 -60 2 -70 25 -94 19 -19 38
-27 65 -28 35 -1 38 1 45 32 5 26 3 32 -11 32 -21 0 -50 31 -50 53 0 13 71
358 95 465 5 20 2 22 -35 22 -24 0 -42 -5 -45 -12z"/>
<path d="M2920 755 c0 -2 -20 -102 -45 -222 -53 -256 -56 -299 -19 -342 43
-52 135 -54 194 -4 l31 26 27 -26 c35 -32 64 -40 118 -32 55 8 110 53 135 110
13 30 109 462 109 490 0 3 -18 5 -40 5 -22 0 -40 -1 -40 -3 0 -2 -20 -104 -45
-226 -28 -141 -52 -235 -65 -256 -40 -65 -121 -70 -134 -8 -4 17 12 116 39
247 25 121 45 226 45 234 0 9 -11 12 -37 10 l-37 -3 -47 -220 c-53 -251 -58
-265 -95 -294 -50 -39 -104 -16 -104 45 0 25 63 359 85 452 5 20 2 22 -35 22
-22 0 -40 -2 -40 -5z"/>
<path d="M594 601 c-44 -20 -74 -54 -74 -83 0 -28 63 -25 83 5 11 17 24 22 60
22 52 0 81 -21 92 -66 l7 -27 -120 -3 c-103 -3 -125 -7 -149 -25 -48 -36 -73
-82 -73 -135 0 -156 240 -191 347 -51 63 83 90 261 47 319 -45 61 -140 80
-220 44z m141 -260 c-31 -90 -79 -127 -153 -118 -79 9 -110 80 -57 132 22 23
31 25 124 25 l100 0 -14 -39z"/>
<path d="M1060 609 c-35 -14 -79 -58 -100 -99 -16 -31 -80 -307 -80 -345 0
-11 11 -15 38 -15 l38 0 23 123 c13 67 30 144 38 171 36 123 153 146 153 30 0
-36 -38 -246 -56 -306 -4 -15 1 -18 35 -18 l39 0 21 93 c11 50 28 126 37 167
13 59 24 82 50 108 41 41 81 41 103 0 16 -28 17 -22 -46 -340 -5 -27 -4 -28
33 -28 l39 0 30 138 c17 76 30 167 30 204 0 60 -3 70 -28 95 -24 24 -35 28
-86 28 -48 0 -66 -5 -97 -27 l-38 -28 -28 27 c-31 29 -105 41 -148 22z"/>
<path d="M1542 528 c-46 -203 -47 -269 -4 -327 33 -46 123 -63 205 -40 47 13
112 70 138 122 11 21 35 106 53 188 l33 149 -41 0 -41 0 -32 -146 c-36 -163
-59 -210 -118 -239 -46 -21 -103 -15 -127 16 -25 30 -23 92 7 239 14 68 25
124 25 126 0 2 -17 4 -38 4 l-39 0 -21 -92z"/>
<path d="M2125 608 c-82 -29 -136 -102 -161 -219 -38 -178 49 -273 210 -228
43 12 96 58 96 83 0 24 -65 21 -90 -4 -23 -23 -85 -27 -111 -7 -24 18 -39 52
-39 86 l0 31 159 0 159 0 6 31 c3 17 6 57 6 89 0 100 -53 149 -160 149 -25 0
-58 -5 -75 -11z m127 -78 c27 -20 39 -58 31 -91 -5 -17 -16 -19 -119 -19 -63
0 -114 2 -114 5 0 27 67 106 100 118 32 12 79 6 102 -13z"/>
<path d="M3502 407 c-24 -117 -45 -223 -49 -235 -5 -20 -2 -22 36 -22 34 0 41
4 46 23 3 12 16 73 30 134 13 62 31 125 39 141 24 46 79 88 125 96 39 6 41 8
41 41 0 30 -3 35 -22 35 -25 0 -83 -13 -111 -25 -13 -6 -16 -3 -11 9 5 13 -1
16 -37 16 l-44 0 -43 -213z"/>
<path d="M3935 601 c-44 -20 -69 -45 -79 -78 -7 -21 -4 -23 28 -23 25 0 43 8
61 26 23 23 32 26 68 21 47 -6 77 -35 77 -73 0 -24 -1 -24 -103 -24 -121 0
-178 -21 -211 -79 -25 -44 -26 -119 -2 -156 62 -95 258 -80 332 26 57 83 82
245 48 310 -31 61 -141 86 -219 50z m140 -248 c-31 -128 -183 -181 -236 -82
-13 25 5 84 29 99 9 5 61 10 116 10 l98 0 -7 -27z"/>
<path d="M4383 596 c-59 -28 -103 -81 -127 -154 -12 -37 -96 -411 -96 -428 0
-2 18 -4 39 -4 44 0 42 -3 62 95 7 33 15 63 19 68 3 4 24 0 46 -9 87 -36 213
4 267 85 56 85 75 246 37 309 -40 65 -152 82 -247 38z m164 -72 c24 -24 25
-31 21 -97 -9 -139 -84 -221 -184 -203 -73 14 -91 118 -37 225 49 97 142 133
200 75z"/>
<path d="M4865 605 c-51 -18 -115 -87 -138 -151 -17 -47 -97 -401 -97 -430 0
-10 12 -14 39 -14 l38 0 18 85 c10 47 19 85 19 85 1 0 19 -7 41 -15 130 -47
270 25 310 159 43 144 26 239 -49 275 -49 24 -122 27 -181 6z m129 -66 c56
-26 60 -139 8 -231 -65 -116 -203 -117 -219 -2 -11 83 49 209 111 234 30 12
71 12 100 -1z"/>
<path d="M5309 606 c-63 -22 -97 -54 -131 -123 -27 -55 -33 -79 -36 -152 -3
-74 0 -91 18 -119 34 -55 108 -75 192 -52 44 13 93 52 101 80 4 17 0 20 -30
20 -20 0 -46 -9 -60 -20 -33 -26 -83 -26 -117 1 -21 17 -26 29 -26 65 l0 44
155 0 154 0 8 38 c13 65 7 142 -14 171 -41 56 -133 76 -214 47z m115 -67 c28
-13 49 -56 44 -91 -3 -22 -6 -23 -121 -26 l-119 -3 24 43 c40 74 110 105 172
77z"/>
<path d="M5611 408 c-23 -117 -45 -223 -48 -235 -5 -21 -2 -23 35 -23 l41 0
16 78 c54 250 76 286 190 320 24 7 31 15 33 40 3 30 1 32 -30 32 -18 -1 -51
-7 -73 -15 -49 -18 -45 -18 -45 0 0 11 -11 15 -39 15 l-38 0 -42 -212z"/>
</g>
</svg>
